# xmcd CD database file
#
# Track frame offsets:
#	150
#	25647
#	37575
#	57305
#	80040
#	111432
#	135835
#	167902
#	183865
#
# Disc length: 2758 seconds
#
# Revision: 3
# Processed by: cddbd v1.5.1PL2 Copyright (c) Steve Scherf et al.
# Submitted via: CDex 1.51
#
DISCID=670ac409
DTITLE=Thierry Lang - Guide me Home
DYEAR=2000
DGENRE=Jazz
TTITLE0=Prelude to Sadness
TTITLE1=In your Own sweet Way
TTITLE2=Guide me Home "Jazz"
TTITLE3=The Days of Wine and Roses
TTITLE4=Tender Awakening
TTITLE5=Invitation
TTITLE6=It never entered my Mind
TTITLE7=Tango De Rio
TTITLE8=Irish
EXTD=Thierry Lang - Piano Solo\n\nProduced by Thierry Lang\nRecorded in Oslo on December 11 1999\nEMI 07243 5297222 7 (P)+(C) 2000 i.d. Records YEAR: 2000
EXTT0=Thierry Lang
EXTT1=Dave Brubeck
EXTT2=Freddie Mercury - Mike Moran
EXTT3=Henry Mancini
EXTT4=Thierry Lang
EXTT5=Bronislaw Kaper
EXTT6=Richard Rodgers - Lorenz Hart
EXTT7=Thierry Lang
EXTT8=Thierry Lang
PLAYORDER=
